<?xml version="1.0" standalone="no"?>
<!DOCTYPE svg PUBLIC "-//W3C//DTD SVG 20010904//EN"
 "http://www.w3.org/TR/2001/REC-SVG-20010904/DTD/svg10.dtd">
<svg version="1.0" xmlns="http://www.w3.org/2000/svg"
 width="500.000000pt" height="500.000000pt" viewBox="0 0 500.000000 500.000000"
 preserveAspectRatio="xMidYMid meet">
<metadata>
Created by potrace 1.11, written by Peter Selinger 2001-2013
</metadata>
<g transform="translate(0.000000,500.000000) scale(0.100000,-0.100000)"
fill="#000000" stroke="none">
<path d="M514 3593 l1 -216 410 0 c226 0 412 -3 415 -7 3 -5 4 -262 4 -572
l-1 -563 -27 -47 c-15 -26 -24 -53 -20 -59 4 -7 3 -9 -3 -6 -11 7 -63 -91 -63
-116 0 -7 -5 -18 -10 -23 -6 -6 -12 -19 -14 -30 -9 -42 -107 -252 -140 -299
-11 -16 -20 -32 -19 -35 4 -11 -63 -80 -79 -80 -17 0 -77 83 -79 109 0 9 -2
23 -4 31 -13 54 -16 70 -21 110 -11 108 -16 130 -28 123 -6 -3 -6 -1 2 8 16
17 16 59 0 59 -10 0 -9 3 1 9 8 5 9 11 3 15 -6 3 -8 15 -5 26 3 11 -1 28 -8
37 -10 12 -10 15 -1 9 9 -6 11 0 8 21 -10 60 -24 312 -19 328 2 6 25 10 51 9
53 -1 102 12 102 29 0 6 3 8 6 4 8 -8 114 98 115 115 1 7 1 17 0 21 -1 5 3 6
8 3 9 -6 26 22 23 37 -1 4 2 7 7 7 9 0 37 81 45 130 3 14 5 27 6 30 24 69 -45
287 -83 263 -6 -3 -7 -1 -4 4 4 6 -2 18 -13 28 -11 10 -20 14 -20 9 0 -5 -4
-3 -8 4 -11 16 -93 23 -109 10 -7 -6 -13 -7 -13 -2 0 4 -16 -9 -35 -30 -19
-21 -35 -44 -35 -50 0 -6 -7 -24 -15 -40 -9 -16 -18 -46 -21 -65 -3 -20 -11
-39 -18 -43 -6 -4 -8 -8 -4 -8 3 0 0 -21 -8 -47 -8 -27 -17 -64 -20 -83 -3
-19 -9 -39 -12 -45 -4 -5 -7 -14 -8 -20 -6 -28 -17 -92 -20 -110 -1 -11 -3
-20 -5 -20 -1 0 -3 -16 -4 -35 -1 -25 -6 -34 -16 -31 -25 7 -84 0 -87 -9 -2
-6 -7 -8 -12 -5 -10 6 -39 -26 -43 -51 -2 -10 -7 -27 -11 -36 -9 -20 22 -90
43 -96 9 -3 11 0 6 8 -13 21 -23 90 -14 90 5 0 9 8 9 19 0 23 16 36 53 45 31
7 68 -8 62 -27 -9 -25 -11 -128 -3 -133 5 -3 5 -11 0 -17 -5 -7 -7 -41 -5 -77
2 -36 4 -95 6 -132 1 -37 5 -70 9 -74 4 -3 4 -14 0 -23 -5 -9 -7 -25 -6 -36 2
-11 5 -38 8 -60 2 -22 5 -42 6 -45 1 -3 1 -25 0 -49 -1 -31 2 -41 10 -36 9 6
10 3 3 -9 -14 -25 11 -149 42 -213 35 -71 87 -127 104 -110 10 9 11 8 5 -7 -5
-13 -4 -17 4 -12 6 3 14 1 17 -5 10 -16 85 -8 129 14 57 28 109 87 151 172 11
22 23 42 26 45 16 13 49 92 43 102 -4 6 -3 8 4 4 10 -6 42 65 58 129 3 14 9
27 13 29 3 2 6 -179 6 -402 l0 -407 268 -3 267 -2 0 207 0 208 63 15 c37 9 61
20 60 27 -2 7 3 10 11 7 16 -6 67 56 120 146 20 36 41 72 47 80 17 29 42 85
41 93 -1 4 2 7 7 7 15 0 21 43 8 59 -7 10 -4 9 10 -2 17 -15 21 -30 22 -80 0
-68 3 -86 14 -104 4 -6 3 -14 -3 -18 -6 -4 -7 -12 -3 -18 4 -7 9 -21 11 -32 2
-11 5 -25 6 -32 1 -7 5 -16 9 -19 4 -4 7 -14 7 -22 0 -25 48 -80 83 -96 34
-15 93 -19 111 -8 6 3 17 7 24 8 8 2 22 10 33 20 10 9 20 15 22 13 1 -2 13
-26 27 -54 69 -141 179 -257 308 -323 112 -58 179 -79 352 -110 73 -13 307 -6
395 13 218 46 413 167 528 328 110 154 151 296 156 540 1 65 4 127 6 139 23
115 27 300 7 320 -9 9 -12 175 -12 715 l0 703 -268 0 -269 0 0 -730 c0 -578
-3 -732 -13 -745 -7 -8 -9 -15 -6 -15 4 0 -2 -10 -14 -22 -11 -12 -20 -27 -20
-34 0 -7 -4 -14 -9 -16 -5 -1 -29 -47 -55 -100 -26 -53 -51 -100 -57 -104 -8
-4 -7 -9 2 -15 10 -6 11 -9 2 -9 -7 0 -13 -7 -13 -15 0 -8 -4 -15 -10 -15 -5
0 -10 -8 -10 -18 0 -10 -5 -23 -12 -30 -7 -7 -9 -12 -4 -12 4 0 0 -7 -8 -16
-9 -8 -14 -20 -11 -25 4 -5 2 -9 -4 -9 -9 0 -27 -56 -23 -72 1 -5 -3 -8 -9 -8
-5 0 -7 -5 -3 -12 4 -7 3 -8 -5 -4 -6 4 -9 11 -7 15 3 4 6 24 8 44 1 21 5 37
8 37 3 0 6 10 6 23 5 92 10 137 14 137 3 0 5 10 6 23 0 12 4 54 8 92 5 39 10
99 12 135 2 36 4 65 4 65 6 0 4 127 -3 147 -19 60 -103 39 -171 -43 -28 -34
-116 -169 -171 -264 -16 -27 -38 -63 -47 -80 -10 -16 -23 -42 -29 -56 -5 -14
-21 -46 -35 -70 -14 -24 -27 -52 -31 -61 -3 -10 -9 -18 -14 -18 -5 0 -9 -7 -9
-15 0 -13 -17 -15 -117 -13 l-118 3 -1 30 c-1 17 -3 32 -4 35 -4 9 5 135 10
135 1 0 3 9 5 19 2 10 10 40 19 65 8 25 17 57 19 71 3 14 10 45 17 70 47 173
18 269 -71 232 -26 -11 -44 -44 -53 -97 -7 -49 -24 -127 -35 -163 -5 -18 -10
-35 -10 -37 -1 -5 -2 -10 -6 -22 -1 -5 -5 -26 -10 -48 -12 -52 -10 -46 -23
-78 -7 -16 -9 -33 -6 -39 4 -7 2 -8 -4 -4 -8 4 -12 0 -12 -12 0 -10 -3 -22 -7
-26 -5 -4 -8 -11 -8 -14 -1 -4 -6 -17 -13 -30 -7 -12 -10 -28 -6 -34 4 -6 3
-8 -4 -4 -6 3 -16 -7 -24 -24 -11 -26 -18 -30 -50 -30 l-38 0 2 -64 c2 -51 -1
-68 -15 -84 -11 -12 -16 -26 -11 -33 4 -7 3 -10 -3 -6 -6 4 -13 0 -17 -8 -5
-15 -27 -22 -24 -7 1 4 -2 18 -5 32 -4 14 -8 43 -10 65 -2 22 -6 45 -10 52 -4
6 -3 14 1 17 7 4 8 39 2 56 -1 3 -2 9 -1 14 1 5 -4 13 -11 17 -9 6 -9 9 -1 9
12 0 12 17 0 38 -5 6 -4 12 0 12 10 0 8 164 -2 181 -5 7 -4 10 1 6 5 -3 9 8 9
24 0 16 -4 29 -8 29 -5 0 -5 5 -1 11 3 6 8 39 10 72 2 34 5 79 7 100 2 22 0
37 -7 37 -7 0 -7 3 1 8 7 4 13 29 15 55 2 26 7 47 11 47 4 0 3 10 -4 21 -8 15
-8 19 0 15 12 -8 12 -7 16 40 3 44 9 51 56 57 46 6 70 31 64 66 -7 38 -30 56
-78 60 -5 1 -5 10 -2 22 4 11 9 64 11 116 3 92 2 96 -22 115 -13 11 -35 21
-48 22 -27 3 -76 -30 -79 -54 -2 -8 -5 -19 -8 -25 -4 -5 -5 -20 -4 -32 1 -12
-2 -20 -6 -17 -4 2 -7 -4 -7 -13 1 -16 -9 -82 -17 -123 -2 -8 -4 -23 -4 -32
-1 -10 -8 -18 -16 -18 -8 0 -15 -5 -15 -11 0 -5 -5 -7 -11 -4 -14 9 -95 -14
-109 -30 -19 -23 13 -48 62 -48 25 0 51 4 58 8 13 8 12 6 -6 -125 -3 -19 -5
-45 -6 -58 0 -12 -4 -25 -9 -28 -5 -3 -5 -13 1 -23 5 -10 6 -21 2 -25 -3 -4
-7 -24 -8 -44 -1 -20 -3 -37 -4 -37 -1 0 -3 -27 -5 -60 -4 -65 -12 -112 -23
-129 -6 -11 -10 -23 -16 -56 -2 -8 -8 -28 -15 -44 -6 -16 -13 -36 -15 -45 -3
-15 -6 -25 -23 -68 -3 -10 -7 -20 -8 -23 -1 -3 -8 -19 -14 -37 -7 -18 -12 -35
-11 -39 1 -4 -3 -10 -8 -13 -5 -3 -19 -28 -32 -55 -12 -27 -27 -55 -34 -62 -6
-7 -26 -39 -44 -71 -28 -50 -40 -62 -79 -76 -25 -9 -49 -14 -54 -11 -5 3 -8
403 -6 907 l2 902 400 2 c220 0 408 2 418 2 16 1 17 18 17 216 l0 215 -1104 0
-1103 0 1 -217z m517 -560 c9 -7 19 -11 22 -8 4 3 5 2 3 -1 -3 -3 8 -31 24
-62 18 -36 25 -59 18 -63 -6 -4 -6 -9 -1 -12 11 -7 7 -73 -8 -130 -5 -20 -7
-43 -3 -49 4 -6 3 -8 -4 -4 -6 3 -15 -9 -23 -31 -6 -21 -17 -43 -23 -49 -42
-45 -91 -109 -88 -117 1 -5 -3 -5 -9 -1 -6 3 -14 2 -18 -4 -4 -6 -27 -14 -53
-17 -35 -4 -47 -2 -51 9 -3 8 -1 16 4 18 7 2 7 12 0 30 -5 15 -6 28 -1 30 4 2
9 21 11 43 1 22 8 46 13 54 9 12 8 13 -4 6 -12 -7 -13 -6 -3 6 6 8 13 34 15
59 1 25 5 47 9 50 3 3 15 41 28 85 47 170 83 209 142 158z m-226 -413 c3 -5 1
-10 -4 -10 -6 0 -11 5 -11 10 0 6 2 10 4 10 3 0 8 -4 11 -10z m2709 -212 c-2
-29 -5 -83 -7 -119 -2 -36 -6 -70 -9 -75 -3 -5 -4 -30 -4 -56 1 -27 -1 -48 -4
-48 -4 0 -7 -10 -7 -22 -3 -41 -12 -122 -18 -158 -3 -19 -8 -53 -11 -75 -2
-22 -7 -46 -9 -53 -8 -22 -18 -135 -19 -207 -1 -51 2 -69 11 -68 7 2 12 -2 10
-9 -3 -19 32 -21 58 -4 14 9 25 23 25 31 0 8 5 15 11 15 5 0 7 5 4 10 -3 6 -1
10 5 10 6 0 9 3 7 8 -3 4 3 24 13 45 11 21 24 55 31 75 6 20 16 43 22 50 5 6
7 12 4 12 -3 0 1 16 9 35 8 20 12 41 8 47 -4 6 -3 8 3 5 9 -6 41 53 41 73 0 3
12 26 26 53 15 26 24 53 20 59 -4 6 -3 8 2 5 5 -3 23 21 39 54 15 32 31 59 34
59 11 0 2 -322 -10 -380 -46 -224 -223 -339 -454 -295 -149 28 -246 125 -261
261 -5 44 -2 54 30 102 20 30 36 56 36 59 0 3 9 18 21 34 11 16 17 34 13 40
-4 8 -3 9 4 5 7 -4 12 -1 12 8 0 9 4 16 10 16 5 0 12 11 16 25 3 14 10 25 14
25 4 0 10 8 14 18 6 19 19 40 53 89 13 17 23 34 23 38 0 7 116 183 136 206 8
9 11 19 7 24 -5 4 -3 5 3 2 7 -4 17 0 24 8 7 8 13 15 15 15 1 0 1 -24 -1 -52z
m257 -245 c13 -16 12 -17 -3 -4 -17 13 -22 21 -14 21 2 0 10 -8 17 -17z
m-2563 -328 c-3 -3 -9 2 -12 12 -6 14 -5 15 5 6 7 -7 10 -15 7 -18z"/>
<path d="M2850 2861 c0 -6 -7 -7 -17 -4 -11 4 -14 3 -9 -5 4 -7 2 -12 -3 -12
-6 0 -11 -7 -11 -15 0 -8 -4 -15 -9 -15 -14 0 -5 -74 8 -78 6 -2 9 -8 5 -13
-3 -5 -2 -9 3 -10 4 0 18 -2 31 -5 42 -8 86 25 96 72 5 22 1 36 -16 57 -23 27
-78 47 -78 28z"/>
</g>
</svg>
